<svg width="34" height="34" viewBox="0 0 34 34" fill="none" xmlns="http://www.w3.org/2000/svg">
<path d="M12.4853 20.7854C12.4853 20.5846 12.4061 20.3921 12.265 20.2501C12.1239 20.1081 11.9325 20.0283 11.733 20.0283H5.71382C5.51428 20.0283 5.3229 20.1081 5.1818 20.2501C5.0407 20.3921 4.96143 20.5846 4.96143 20.7854C4.96143 20.9862 5.0407 21.1788 5.1818 21.3208C5.3229 21.4627 5.51428 21.5425 5.71382 21.5425H11.733C11.9325 21.5425 12.1239 21.4627 12.265 21.3208C12.4061 21.1788 12.4853 20.9862 12.4853 20.7854Z" fill="white"/>
<path d="M10.2285 17.0003C10.2285 16.7995 10.1493 16.6069 10.0082 16.465C9.86704 16.323 9.67567 16.2432 9.47612 16.2432H3.45699C3.25744 16.2432 3.06606 16.323 2.92496 16.465C2.78386 16.6069 2.70459 16.7995 2.70459 17.0003C2.70459 17.2011 2.78386 17.3937 2.92496 17.5356C3.06606 17.6776 3.25744 17.7574 3.45699 17.7574H9.47612C9.67567 17.7574 9.86704 17.6776 10.0082 17.5356C10.1493 17.3937 10.2285 17.2011 10.2285 17.0003Z" fill="white"/>
<path d="M7.97119 13.2141C7.97119 13.0133 7.89192 12.8207 7.75082 12.6787C7.60972 12.5368 7.41834 12.457 7.2188 12.457H1.19966C1.00011 12.457 0.808737 12.5368 0.667636 12.6787C0.526535 12.8207 0.447266 13.0133 0.447266 13.2141C0.447266 13.4149 0.526535 13.6074 0.667636 13.7494C0.808737 13.8914 1.00011 13.9712 1.19966 13.9712H7.2188C7.41834 13.9712 7.60972 13.8914 7.75082 13.7494C7.89192 13.6074 7.97119 13.4149 7.97119 13.2141Z" fill="white"/>
<path d="M29.3318 10.3457L21.3865 16.4933C20.9919 16.799 20.5078 16.9648 20.0097 16.9648C19.5116 16.9648 19.0275 16.799 18.6328 16.4933L10.6875 10.3457C10.6103 10.2776 10.5199 10.2262 10.4222 10.1946C10.3244 10.1629 10.2212 10.1518 10.119 10.1618C10.0167 10.1718 9.91762 10.2028 9.82774 10.2528C9.73785 10.3028 9.6591 10.3708 9.59633 10.4526C9.53355 10.5344 9.48809 10.6283 9.46274 10.7284C9.43738 10.8286 9.43268 10.9329 9.44891 11.035C9.46514 11.137 9.50197 11.2346 9.55712 11.3218C9.61228 11.409 9.68459 11.4839 9.7696 11.5419L17.7525 17.697C18.4103 18.2066 19.2171 18.4829 20.0473 18.4829C20.8774 18.4829 21.6843 18.2066 22.3421 17.697L30.2497 11.5419C30.3347 11.4839 30.4071 11.409 30.4622 11.3218C30.5174 11.2346 30.5542 11.137 30.5704 11.035C30.5866 10.9329 30.5819 10.8286 30.5566 10.7284C30.5312 10.6283 30.4858 10.5344 30.423 10.4526C30.3602 10.3708 30.2815 10.3028 30.1916 10.2528C30.1017 10.2028 30.0026 10.1718 29.9004 10.1618C29.7981 10.1518 29.695 10.1629 29.5972 10.1946C29.4994 10.2262 29.4091 10.2776 29.3318 10.3457Z" fill="white"/>
<path d="M31.2953 7.1582H7.21871C7.01916 7.1582 6.82779 7.23796 6.68669 7.37994C6.54558 7.52192 6.46631 7.71449 6.46631 7.91528C6.46631 8.11607 6.54558 8.30864 6.68669 8.45062C6.82779 8.5926 7.01916 8.67237 7.21871 8.67237H31.2953C31.4948 8.67237 31.6862 8.75213 31.8273 8.89411C31.9684 9.03609 32.0476 9.22866 32.0476 9.42945V24.5712C32.0476 24.7719 31.9684 24.9645 31.8273 25.1065C31.6862 25.2485 31.4948 25.3282 31.2953 25.3282H7.21871C7.01916 25.3282 6.82779 25.408 6.68669 25.55C6.54558 25.692 6.46631 25.8845 6.46631 26.0853C6.46631 26.2861 6.54558 26.4787 6.68669 26.6207C6.82779 26.7626 7.01916 26.8424 7.21871 26.8424H31.2953C31.8939 26.8424 32.468 26.6031 32.8913 26.1772C33.3146 25.7512 33.5524 25.1735 33.5524 24.5712V9.42945C33.5524 8.82708 33.3146 8.24938 32.8913 7.82343C32.468 7.39749 31.8939 7.1582 31.2953 7.1582Z" fill="white"/>
<path d="M24.742 17.9768C24.6715 18.0472 24.6155 18.131 24.5773 18.2232C24.5391 18.3155 24.5195 18.4144 24.5195 18.5144C24.5195 18.6143 24.5391 18.7133 24.5773 18.8055C24.6155 18.8978 24.6715 18.9815 24.742 19.0519L29.2564 23.5944C29.3263 23.6654 29.4095 23.7217 29.5012 23.7601C29.5929 23.7986 29.6912 23.8184 29.7906 23.8184C29.8899 23.8184 29.9882 23.7986 30.0799 23.7601C30.1716 23.7217 30.2548 23.6654 30.3248 23.5944C30.3953 23.524 30.4513 23.4403 30.4895 23.348C30.5277 23.2558 30.5473 23.1568 30.5473 23.0569C30.5473 22.9569 30.5277 22.858 30.4895 22.7657C30.4513 22.6735 30.3953 22.5897 30.3248 22.5194L25.8104 17.9768C25.7405 17.9059 25.6573 17.8496 25.5656 17.8111C25.4739 17.7727 25.3755 17.7529 25.2762 17.7529C25.1769 17.7529 25.0785 17.7727 24.9869 17.8111C24.8952 17.8496 24.812 17.9059 24.742 17.9768Z" fill="white"/>
</svg>
