<svg width="149" height="16" viewBox="0 0 149 16" fill="none" xmlns="http://www.w3.org/2000/svg">
<path d="M80.4269 1.64339C79.3916 0.608103 77.9147 0.144756 76.2712 0.144756H70.5952V15.8696H76.2712C77.9074 15.8696 79.3916 15.4063 80.4269 14.371C82.1934 12.6044 82.0196 10.3094 82.0196 7.94202C82.0196 5.57461 82.1934 3.41715 80.4269 1.64339ZM78.2839 12.1556C77.7554 12.7927 77.0459 13.1257 75.9889 13.1257H73.6721V2.8814H75.9889C77.0459 2.8814 77.7554 3.21443 78.2839 3.85153C78.8558 4.56103 78.95 5.55289 78.95 7.93478C78.95 10.3167 78.8558 11.4461 78.2839 12.1556Z" fill="white"/>
<path d="M52.5823 8.64437L48.4773 0.137604H45.4438V15.8697H48.5208V6.69686L51.5398 12.6625H53.6176L56.6221 6.69686V15.8697H59.6918V0.137604H56.6656L52.5823 8.64437Z" fill="white"/>
<path d="M38.9787 10.3674C38.9787 12.1774 37.9 13.2634 36.2421 13.2634C34.5841 13.2634 33.5199 12.1846 33.5199 10.3674V0.137604H30.4502V10.476C30.4502 13.8136 33.0131 16 36.2421 16C39.471 16 42.0267 13.8136 42.0267 10.476V0.137604H38.9787V10.3674Z" fill="white"/>
<path d="M8.52851 10.3674C8.52851 12.1774 7.44254 13.2634 5.79186 13.2634C4.14118 13.2634 3.07692 12.1846 3.07692 10.3674V0.137604H0V10.476C0 13.8136 2.5629 16 5.79186 16C9.02082 16 11.5765 13.8136 11.5765 10.476V0.137604H8.52851V10.3674Z" fill="white"/>
<path d="M88.2239 0.137604H85.147V15.8624H88.2239V0.137604Z" fill="white"/>
<path d="M23.9643 9.77377L17.7308 0.137604H14.9941V15.8697H18.0638V6.21179L24.2973 15.8697H27.034V0.137604H23.9643V9.77377Z" fill="white"/>
<path d="M109.017 0.137604H105.947V15.8624H109.017V0.137604Z" fill="white"/>
<path d="M97.1435 9.67961H100.039V10.2733C100.039 11.1348 99.8005 11.8443 99.3372 12.3728C98.7869 12.9665 98.0557 13.2561 97.1507 13.2561C96.3109 13.2561 95.6449 12.9882 95.1815 12.438C94.5589 11.7068 94.4286 11.0914 94.4286 7.99998C94.4286 4.90858 94.6023 4.31492 95.1815 3.5837C95.6666 3.03348 96.3326 2.74388 97.1507 2.74388C98.6711 2.74388 99.5978 3.51854 99.9815 5.0389H103.073C102.653 2.30226 100.734 0 97.1507 0C95.4711 0 94.0593 0.571944 92.9082 1.72307C92.2204 2.41085 91.8005 3.17827 91.6268 4.08325C91.4458 4.9665 91.3589 6.26967 91.3589 7.99274C91.3589 9.71581 91.4458 11.019 91.6268 11.9022C91.8005 12.7855 92.2204 13.5819 92.9082 14.2696C94.0593 15.4135 95.4711 15.9927 97.1507 15.9927C98.9173 15.9927 100.38 15.4425 101.589 14.2045C102.667 13.0534 103.087 11.7068 103.087 9.41174V7.11672H97.1507V9.67961H97.1435Z" fill="white"/>
<path d="M127.971 0.137604L122.244 15.8624H125.451L126.407 13.0824H131.996L132.923 15.8624H136.123L130.374 0.137604H127.964H127.971ZM127.261 10.4978L129.252 4.77831L131.171 10.4978H127.261Z" fill="white"/>
<path d="M141.125 13.1258V0.137604H138.063V15.8697H148.264V13.1258H141.125Z" fill="white"/>
<path d="M122.802 0.137604H111.515V2.88149H115.627V15.8697H118.697V2.88149H122.802V0.137604Z" fill="white"/>
<ellipse cx="65.1579" cy="14.4868" rx="1.44796" ry="1.44796" fill="white"/>
</svg>
